<?xml version='1.0' encoding='utf-8'?>
<svg xmlns="http://www.w3.org/2000/svg" width="2880" height="1800" viewBox="0 0 2880 1800" role="img" aria-labelledby="title desc">
<title id="title">VisionX System Architecture</title>
<desc id="desc">Revised supplied architecture preserving four subsystem columns, original icon geometry, palette and separate power strip. Camera and VL53L0X feed Pi Zero 2 W; Pi hotspot connects the Java/XML Android app; connection verification precedes camera/distance reception. Camera stream feeds current YOLOv8s detection, TTS and headphones. Independent implemented offline VXN-RAMNet research core feeds an in-progress Android integration and target route-output policy. IMU-to-Pi acquisition and turn/backtracking fusion are planned. Power remains a conceptual target; no current battery or electrical wiring is asserted.</desc>
<defs><marker id="arrow-data" viewBox="0 0 12 10" refX="11" refY="5" markerWidth="12" markerHeight="10" markerUnits="userSpaceOnUse" orient="auto-start-reverse"><path d="M0 0L12 5L0 10Z" fill="#000000"/></marker><marker id="arrow-aux" viewBox="0 0 12 10" refX="11" refY="5" markerWidth="12" markerHeight="10" markerUnits="userSpaceOnUse" orient="auto-start-reverse"><path d="M0 0L12 5L0 10Z" fill="#000000"/></marker><marker id="arrow-control" viewBox="0 0 12 10" refX="11" refY="5" markerWidth="12" markerHeight="10" markerUnits="userSpaceOnUse" orient="auto-start-reverse"><path d="M0 0L12 5L0 10Z" fill="#000000"/></marker><marker id="arrow-power" viewBox="0 0 12 10" refX="11" refY="5" markerWidth="12" markerHeight="10" markerUnits="userSpaceOnUse" orient="auto-start-reverse"><path d="M0 0L12 5L0 10Z" fill="#000000"/></marker><marker id="arrow-new" viewBox="0 0 12 10" refX="11" refY="5" markerWidth="14" markerHeight="12" markerUnits="userSpaceOnUse" orient="auto"><path d="M0 0L12 5L0 10Z" fill="#142333"/></marker></defs>
<g font-family="Arial, Helvetica, sans-serif" font-weight="400"><rect x="0" y="0" width="2880" height="1800" rx="0" fill="white" stroke="none" stroke-width="3"/><rect x="970" y="28" width="940" height="82" rx="41" fill="#B6D4F7" stroke="#142333" stroke-width="3"/><text x="1440" y="86" font-family="Arial, Helvetica, sans-serif" font-size="52" font-weight="400" fill="#142333" text-anchor="middle" id="text-000">System Architecture</text><rect x="72" y="142" width="780" height="53" rx="12" fill="#B6D4F7" stroke="#142333" stroke-width="3"/><text x="462.0" y="178" font-family="Arial, Helvetica, sans-serif" font-size="25" font-weight="700" fill="#142333" text-anchor="middle" id="text-001">IMPLEMENTED • hardware + offline core</text><rect x="900" y="142" width="870" height="53" rx="12" fill="#CFABE9" stroke="#142333" stroke-width="3"/><text x="1335.0" y="178" font-family="Arial, Helvetica, sans-serif" font-size="25" font-weight="700" fill="#142333" text-anchor="middle" id="text-002">INTEGRATION / TEST • YOLOv8s now, VXN port next</text><rect x="1816" y="142" width="992" height="53" rx="12" fill="#FFDB96" stroke="#142333" stroke-width="3"/><text x="2312.0" y="178" font-family="Arial, Helvetica, sans-serif" font-size="25" font-weight="700" fill="#142333" text-anchor="middle" id="text-003">PROPOSED / NEXT STAGE • IMU + route guidance</text><circle cx="100" cy="257" r="28" fill="#B6D4F7" stroke="#142333" stroke-width="3"/><text x="100" y="268" font-family="Arial, Helvetica, sans-serif" font-size="32" font-weight="400" fill="#142333" text-anchor="middle" id="text-004">1</text><text x="148" y="268" font-family="Arial, Helvetica, sans-serif" font-size="32" font-weight="400" fill="#142333" text-anchor="start" id="text-005">Wearable Node</text><text x="148" y="309" font-family="Arial, Helvetica, sans-serif" font-size="25" font-weight="400" fill="#142333" text-anchor="start" id="text-006">Implemented • team report</text><circle cx="678" cy="257" r="28" fill="#B6D4F7" stroke="#142333" stroke-width="3"/><text x="678" y="268" font-family="Arial, Helvetica, sans-serif" font-size="32" font-weight="400" fill="#142333" text-anchor="middle" id="text-007">2</text><text x="726" y="268" font-family="Arial, Helvetica, sans-serif" font-size="32" font-weight="400" fill="#142333" text-anchor="start" id="text-008">VisionX Android App</text><text x="726" y="309" font-family="Arial, Helvetica, sans-serif" font-size="25" font-weight="400" fill="#142333" text-anchor="start" id="text-009">Java + XML • Android Studio</text><circle cx="1408" cy="257" r="28" fill="#B6D4F7" stroke="#142333" stroke-width="3"/><text x="1408" y="268" font-family="Arial, Helvetica, sans-serif" font-size="32" font-weight="400" fill="#142333" text-anchor="middle" id="text-010">3</text><text x="1456" y="268" font-family="Arial, Helvetica, sans-serif" font-size="32" font-weight="400" fill="#142333" text-anchor="start" id="text-011">Mobile Processing / Research</text><text x="1456" y="309" font-family="Arial, Helvetica, sans-serif" font-size="25" font-weight="400" fill="#142333" text-anchor="start" id="text-012">Current test and offline core are separate</text><circle cx="2308" cy="257" r="28" fill="#B6D4F7" stroke="#142333" stroke-width="3"/><text x="2308" y="268" font-family="Arial, Helvetica, sans-serif" font-size="32" font-weight="400" fill="#142333" text-anchor="middle" id="text-013">4</text><text x="2356" y="268" font-family="Arial, Helvetica, sans-serif" font-size="32" font-weight="400" fill="#142333" text-anchor="start" id="text-014">Audio Output</text><text x="2356" y="309" font-family="Arial, Helvetica, sans-serif" font-size="25" font-weight="400" fill="#142333" text-anchor="start" id="text-015">Implemented for detection speech</text><path d="M492 407 H536 V755 H492" fill="none" stroke="#142333" stroke-width="3.3" stroke-linecap="round" stroke-linejoin="round" marker-end="url(#arrow-new)"/><path d="M282 605 V685" fill="none" stroke="#142333" stroke-width="3.3" stroke-linecap="round" stroke-linejoin="round" marker-end="url(#arrow-new)"/><path d="M282 835 V915" fill="none" stroke="#142333" stroke-width="3.3" stroke-linecap="round" stroke-linejoin="round" marker-end="url(#arrow-new)"/><path d="M492 985 H596 V430 H650" fill="none" stroke="#142333" stroke-width="3.3" stroke-linecap="round" stroke-linejoin="round" marker-end="url(#arrow-new)"/><path d="M950 510 V560" fill="none" stroke="#142333" stroke-width="3.3" stroke-linecap="round" stroke-linejoin="round" marker-end="url(#arrow-new)"/><path d="M950 670 V750" fill="none" stroke="#142333" stroke-width="3.3" stroke-linecap="round" stroke-linejoin="round" marker-end="url(#arrow-new)"/><path d="M1250 807 H1300 V437 H1380" fill="none" stroke="#142333" stroke-width="3.3" stroke-linecap="round" stroke-linejoin="round" marker-end="url(#arrow-new)"/><path d="M950 900 V1010" fill="none" stroke="#142333" stroke-width="3.3" stroke-linecap="round" stroke-linejoin="round" marker-end="url(#arrow-new)"/><path d="M2120 437 H2280" fill="none" stroke="#142333" stroke-width="3.3" stroke-linecap="round" stroke-linejoin="round" marker-end="url(#arrow-new)"/><path d="M2544 475 V585" fill="none" stroke="#142333" stroke-width="3.3" stroke-linecap="round" stroke-linejoin="round" marker-end="url(#arrow-new)"/><path d="M2544 710 V820" fill="none" stroke="#142333" stroke-width="3.3" stroke-linecap="round" stroke-linejoin="round" marker-end="url(#arrow-new)"/><path d="M72 1275 H36 V785 H72" fill="none" stroke="#142333" stroke-width="3.3" stroke-linecap="round" stroke-linejoin="round" marker-end="url(#arrow-new)" stroke-dasharray="12 9"/><path d="M1250 862 H1320 V1422 H1380" fill="none" stroke="#142333" stroke-width="3.3" stroke-linecap="round" stroke-linejoin="round" marker-end="url(#arrow-new)" stroke-dasharray="12 9"/><path d="M1550 780 V850" fill="none" stroke="#142333" stroke-width="3.3" stroke-linecap="round" stroke-linejoin="round" marker-end="url(#arrow-new)"/><path d="M1950 780 V850" fill="none" stroke="#142333" stroke-width="3.3" stroke-linecap="round" stroke-linejoin="round" marker-end="url(#arrow-new)"/><path d="M1550 1060 V1135" fill="none" stroke="#142333" stroke-width="3.3" stroke-linecap="round" stroke-linejoin="round" marker-end="url(#arrow-new)"/><path d="M1715 1205 H1748 V952 H1780" fill="none" stroke="#142333" stroke-width="3.3" stroke-linecap="round" stroke-linejoin="round" marker-end="url(#arrow-new)"/><path d="M1950 1060 V1135" fill="none" stroke="#142333" stroke-width="3.3" stroke-linecap="round" stroke-linejoin="round" marker-end="url(#arrow-new)"/><path d="M1950 1305 V1370" fill="none" stroke="#142333" stroke-width="3.3" stroke-linecap="round" stroke-linejoin="round" marker-end="url(#arrow-new)" stroke-dasharray="12 9"/><path d="M2120 1422 H2200 V1245 H2280" fill="none" stroke="#142333" stroke-width="3.3" stroke-linecap="round" stroke-linejoin="round" marker-end="url(#arrow-new)" stroke-dasharray="12 9"/><path d="M2808 1245 H2840 V417 H2808" fill="none" stroke="#142333" stroke-width="3.3" stroke-linecap="round" stroke-linejoin="round" marker-end="url(#arrow-new)" stroke-dasharray="12 9"/><rect x="72" y="350" width="420" height="115" rx="16" fill="#B6D4F7" stroke="#142333" stroke-width="3"/><g transform="translate(94 375) scale(0.85)" fill="none" stroke="#205ba6" color="#205ba6" stroke-width="3" stroke-linecap="round" stroke-linejoin="round"><path d="M3 12h8l4-6h18l4 6h8v30H3Z"/><circle cx="24" cy="27" r="10"/><circle cx="24" cy="27" r="5"/></g><text x="152" y="392" font-family="Arial, Helvetica, sans-serif" font-size="31" font-weight="400" fill="#142333" text-anchor="start" id="text-016">Camera module</text><text x="96" y="438" font-family="Arial, Helvetica, sans-serif" font-size="27" font-weight="400" fill="#142333" text-anchor="start" id="text-017">Working camera frames</text><rect x="72" y="495" width="420" height="110" rx="16" fill="#9DDAC5" stroke="#142333" stroke-width="3"/><g transform="translate(94 509) scale(0.85)" fill="none" stroke="#087565" color="#087565" stroke-width="3" stroke-linecap="round" stroke-linejoin="round"><rect x="4" y="8" width="27" height="32" rx="4"/><circle cx="17.5" cy="24" r="6"/><path d="M35 17l10-5M35 24h12M35 31l10 5"/></g><text x="152" y="535" font-family="Arial, Helvetica, sans-serif" font-size="31" font-weight="400" fill="#142333" text-anchor="start" id="text-018">VL53L0X ToF</text><text x="96" y="577" font-family="Arial, Helvetica, sans-serif" font-size="27" font-weight="400" fill="#142333" text-anchor="start" id="text-019">Working distance data</text><rect x="72" y="685" width="420" height="150" rx="16" fill="#B6D4F7" stroke="#142333" stroke-width="3"/><g transform="translate(94 701) scale(0.85)" fill="none" stroke="#205ba6" color="#205ba6" stroke-width="3" stroke-linecap="round" stroke-linejoin="round"><rect x="6" y="7" width="36" height="34" rx="4"/><path d="M15 1v10M24 1v10M33 1v10M15 37v10M24 37v10M33 37v10M1 16h10M1 25h10M1 34h10M37 16h10M37 25h10M37 34h10"/><path d="M16 25l6 6 11-14"/></g><text x="152" y="725" font-family="Arial, Helvetica, sans-serif" font-size="31" font-weight="400" fill="#142333" text-anchor="start" id="text-020">Raspberry Pi</text><text x="152" y="764" font-family="Arial, Helvetica, sans-serif" font-size="31" font-weight="400" fill="#142333" text-anchor="start" id="text-021">Zero 2 W</text><text x="96" y="810" font-family="Arial, Helvetica, sans-serif" font-size="26" font-weight="400" fill="#142333" text-anchor="start" id="text-022">Capture + sensor acquisition</text><rect x="72" y="915" width="420" height="140" rx="16" fill="#B6D4F7" stroke="#142333" stroke-width="3"/><g transform="translate(94 929) scale(0.85)" fill="none" stroke="#205ba6" color="#205ba6" stroke-width="3" stroke-linecap="round" stroke-linejoin="round"><path d="M2 14Q24-4 46 14M9 23Q24 10 39 23M17 32Q24 25 31 32"/><circle cx="24" cy="41" r="3" fill="currentColor" stroke="none"/></g><text x="152" y="956" font-family="Arial, Helvetica, sans-serif" font-size="29" font-weight="400" fill="#142333" text-anchor="start" id="text-023">Pi Wi-Fi access point</text><text x="96" y="998" font-family="Arial, Helvetica, sans-serif" font-size="25" font-weight="400" fill="#142333" text-anchor="start" id="text-024">Hotspot starts on boot</text><text x="96" y="1031" font-family="Arial, Helvetica, sans-serif" font-size="25" font-weight="400" fill="#142333" text-anchor="start" id="text-025">Camera + distance over Wi-Fi</text><text x="576" y="697" font-family="Arial, Helvetica, sans-serif" font-size="25" font-weight="400" fill="#142333" text-anchor="middle" transform="rotate(-90 576 697)" id="text-026">Local Wi-Fi</text><rect x="72" y="1200" width="420" height="150" rx="16" fill="#FFDB96" stroke="#142333" stroke-width="3" stroke-dasharray="12 8"/><g transform="translate(94 1216) scale(0.85)" fill="none" stroke="#087565" color="#087565" stroke-width="3" stroke-linecap="round" stroke-linejoin="round"><path d="M24 24V3m0 21L5 41m19-17 20 16M19 8l5-5 5 5M5 33v8h8m23-1h8v-8"/><circle cx="24" cy="24" r="3"/></g><text x="152" y="1240" font-family="Arial, Helvetica, sans-serif" font-size="29" font-weight="400" fill="#142333" text-anchor="start" id="text-027">IMU • PLANNED</text><text x="96" y="1284" font-family="Arial, Helvetica, sans-serif" font-size="26" font-weight="400" fill="#142333" text-anchor="start" id="text-028">Turn / backtrack evidence</text><text x="96" y="1319" font-family="Arial, Helvetica, sans-serif" font-size="26" font-weight="400" fill="#142333" text-anchor="start" id="text-029">Sensor fusion via the Pi</text><rect x="650" y="350" width="600" height="160" rx="16" fill="#B6D4F7" stroke="#142333" stroke-width="3"/><g transform="translate(672 368) scale(0.85)" fill="none" stroke="#205ba6" color="#205ba6" stroke-width="3" stroke-linecap="round" stroke-linejoin="round"><rect x="3" y="8" width="42" height="33" rx="4"/><path d="M4 10l20 17 20-17"/></g><text x="732" y="392" font-family="Arial, Helvetica, sans-serif" font-size="32" font-weight="400" fill="#142333" text-anchor="start" id="text-030">Scan Pi access point</text><text x="674" y="439" font-family="Arial, Helvetica, sans-serif" font-size="29" font-weight="400" fill="#142333" text-anchor="start" id="text-031">Connect to the local hotspot</text><text x="674" y="479" font-family="Arial, Helvetica, sans-serif" font-size="29" font-weight="400" fill="#142333" text-anchor="start" id="text-032">Verify the connection state</text><rect x="650" y="560" width="600" height="110" rx="16" fill="#B6D4F7" stroke="#142333" stroke-width="3"/><text x="950" y="605" font-family="Arial, Helvetica, sans-serif" font-size="33" font-weight="400" fill="#142333" text-anchor="middle" id="text-033">Connection verified</text><text x="950" y="645" font-family="Arial, Helvetica, sans-serif" font-size="25" font-weight="400" fill="#142333" text-anchor="middle" id="text-034">Receive stream after successful connection</text><text x="971" y="720" font-family="Arial, Helvetica, sans-serif" font-size="25" font-weight="400" fill="#142333" text-anchor="start" id="text-035">Connected</text><rect x="650" y="750" width="600" height="150" rx="16" fill="#B6D4F7" stroke="#142333" stroke-width="3"/><text x="674" y="792" font-family="Arial, Helvetica, sans-serif" font-size="31" font-weight="400" fill="#142333" text-anchor="start" id="text-036">Local camera / distance stream</text><text x="674" y="837" font-family="Arial, Helvetica, sans-serif" font-size="27" font-weight="400" fill="#142333" text-anchor="start" id="text-037">Camera frames / video received</text><text x="674" y="873" font-family="Arial, Helvetica, sans-serif" font-size="27" font-weight="400" fill="#142333" text-anchor="start" id="text-038">VL53L0X distance received</text><rect x="650" y="1010" width="600" height="115" rx="16" fill="#9DDAC5" stroke="#142333" stroke-width="3"/><text x="674" y="1053" font-family="Arial, Helvetica, sans-serif" font-size="29" font-weight="400" fill="#142333" text-anchor="start" id="text-039">Distance data available on phone</text><text x="674" y="1097" font-family="Arial, Helvetica, sans-serif" font-size="26" font-weight="400" fill="#142333" text-anchor="start" id="text-040">Proximity measurement ≠ path clearance</text><rect x="650" y="1200" width="600" height="150" rx="16" fill="#CFABE9" stroke="#142333" stroke-width="3"/><text x="674" y="1242" font-family="Arial, Helvetica, sans-serif" font-size="31" font-weight="400" fill="#142333" text-anchor="start" id="text-041">Team-reported live test</text><text x="674" y="1286" font-family="Arial, Helvetica, sans-serif" font-size="28" font-weight="400" fill="#142333" text-anchor="start" id="text-042">Up to approximately one hour</text><text x="674" y="1324" font-family="Arial, Helvetica, sans-serif" font-size="28" font-weight="400" fill="#142333" text-anchor="start" id="text-043">Pi stream → Android detection</text><rect x="1380" y="350" width="740" height="175" rx="16" fill="#CFABE9" stroke="#142333" stroke-width="3"/><text x="1404" y="395" font-family="Arial, Helvetica, sans-serif" font-size="37" font-weight="700" fill="#142333" text-anchor="start" id="text-044">YOLOv8s mobile detection</text><text x="1404" y="440" font-family="Arial, Helvetica, sans-serif" font-size="28" font-weight="700" fill="#142333" text-anchor="start" id="text-045">CURRENT LIVE INTEGRATION TEST</text><text x="1404" y="486" font-family="Arial, Helvetica, sans-serif" font-size="27" font-weight="400" fill="#142333" text-anchor="start" id="text-046">Temporary detector; not the navigation core</text><text x="2140" y="404" font-family="Arial, Helvetica, sans-serif" font-size="25" font-weight="400" fill="#142333" text-anchor="start" id="text-047">Text</text><text x="1750" y="620" font-family="Arial, Helvetica, sans-serif" font-size="30" font-weight="700" fill="#142333" text-anchor="middle" id="text-048">VXN-RAMNet • IMPLEMENTED OFFLINE CORE</text><rect x="1380" y="670" width="740" height="110" rx="16" fill="#B6D4F7" stroke="#142333" stroke-width="3"/><g transform="translate(1404 684) scale(0.9)" fill="none" stroke="#205ba6" color="#205ba6" stroke-width="3" stroke-linecap="round" stroke-linejoin="round"><ellipse cx="24" cy="9" rx="18" ry="7"/><path d="M6 9v30c0 9 36 9 36 0V9M6 19c0 9 36 9 36 0M6 29c0 9 36 9 36 0"/></g><text x="1470" y="709" font-family="Arial, Helvetica, sans-serif" font-size="31" font-weight="400" fill="#142333" text-anchor="start" id="text-049">Completed videos → EfficientNetB0</text><text x="1404" y="752" font-family="Arial, Helvetica, sans-serif" font-size="27" font-weight="400" fill="#142333" text-anchor="start" id="text-050">Frozen features • original + flipped embeddings</text><rect x="1380" y="850" width="335" height="210" rx="16" fill="#B6D4F7" stroke="#142333" stroke-width="3"/><g transform="translate(1403 862) scale(0.8)" fill="none" stroke="#205ba6" color="#205ba6" stroke-width="3" stroke-linecap="round" stroke-linejoin="round"><path d="M24 9Q12 2 3 8v34q10-6 21 1 11-7 21-1V8Q36 2 24 9v34"/></g><text x="1460" y="889" font-family="Arial, Helvetica, sans-serif" font-size="30" font-weight="400" fill="#142333" text-anchor="start" id="text-051">Enrollment</text><text x="1404" y="932" font-family="Arial, Helvetica, sans-serif" font-size="26" font-weight="400" fill="#142333" text-anchor="start" id="text-052">Junction revisit</text><text x="1404" y="966" font-family="Arial, Helvetica, sans-serif" font-size="26" font-weight="400" fill="#142333" text-anchor="start" id="text-053">Turnaround heuristic</text><text x="1404" y="1000" font-family="Arial, Helvetica, sans-serif" font-size="26" font-weight="400" fill="#142333" text-anchor="start" id="text-054">One junction</text><text x="1404" y="1034" font-family="Arial, Helvetica, sans-serif" font-size="26" font-weight="400" fill="#142333" text-anchor="start" id="text-055">Two learned branches</text><rect x="1780" y="850" width="340" height="210" rx="16" fill="#B6D4F7" stroke="#142333" stroke-width="3"/><g transform="translate(1803 862) scale(0.8)" fill="none" stroke="#205ba6" color="#205ba6" stroke-width="3" stroke-linecap="round" stroke-linejoin="round"><circle cx="21" cy="20" r="14"/><path d="M31 31l14 14"/></g><text x="1860" y="889" font-family="Arial, Helvetica, sans-serif" font-size="30" font-weight="400" fill="#142333" text-anchor="start" id="text-056">Recognition</text><text x="1804" y="932" font-family="Arial, Helvetica, sans-serif" font-size="26" font-weight="400" fill="#142333" text-anchor="start" id="text-057">Query-to-memory</text><text x="1804" y="966" font-family="Arial, Helvetica, sans-serif" font-size="26" font-weight="400" fill="#142333" text-anchor="start" id="text-058">Multi-window scores</text><text x="1804" y="1000" font-family="Arial, Helvetica, sans-serif" font-size="26" font-weight="400" fill="#142333" text-anchor="start" id="text-059">Branch separation</text><text x="1804" y="1034" font-family="Arial, Helvetica, sans-serif" font-size="26" font-weight="400" fill="#142333" text-anchor="start" id="text-060">Evidence aggregation</text><path d="M1380 1155 C1380 1128 1715 1128 1715 1155 V1285 C1715 1312 1380 1312 1380 1285 Z" fill="#B6D4F7" stroke="#142333" stroke-width="3"/><path d="M1380 1155 C1380 1182 1715 1182 1715 1155" fill="none" stroke="#142333" stroke-width="3"/><text x="1404" y="1196" font-family="Arial, Helvetica, sans-serif" font-size="25" font-weight="400" fill="#142333" text-anchor="start" id="text-061">Personal route memory</text><text x="1404" y="1231" font-family="Arial, Helvetica, sans-serif" font-size="25" font-weight="400" fill="#142333" text-anchor="start" id="text-062">Common path • Junction</text><text x="1404" y="1266" font-family="Arial, Helvetica, sans-serif" font-size="25" font-weight="400" fill="#142333" text-anchor="start" id="text-063">A • Backtrack • B</text><rect x="1780" y="1135" width="340" height="170" rx="16" fill="#B6D4F7" stroke="#142333" stroke-width="3"/><text x="1804" y="1176" font-family="Arial, Helvetica, sans-serif" font-size="29" font-weight="400" fill="#142333" text-anchor="start" id="text-064">Branch decision</text><text x="1804" y="1214" font-family="Arial, Helvetica, sans-serif" font-size="26" font-weight="400" fill="#142333" text-anchor="start" id="text-065">Known / Uncertain</text><text x="1804" y="1247" font-family="Arial, Helvetica, sans-serif" font-size="26" font-weight="400" fill="#142333" text-anchor="start" id="text-066">Unknown route</text><text x="1804" y="1280" font-family="Arial, Helvetica, sans-serif" font-size="26" font-weight="400" fill="#142333" text-anchor="start" id="text-067">Uncalibrated thresholds</text><text x="1568" y="820" font-family="Arial, Helvetica, sans-serif" font-size="25" font-weight="400" fill="#142333" text-anchor="start" id="text-068">Teach</text><text x="1968" y="820" font-family="Arial, Helvetica, sans-serif" font-size="25" font-weight="400" fill="#142333" text-anchor="start" id="text-069">Query</text><text x="1568" y="1105" font-family="Arial, Helvetica, sans-serif" font-size="25" font-weight="400" fill="#142333" text-anchor="start" id="text-070">Save</text><text x="1740" y="1105" font-family="Arial, Helvetica, sans-serif" font-size="23" font-weight="400" fill="#142333" text-anchor="middle" transform="rotate(-90 1740 1105)" id="text-071">Read</text><rect x="1380" y="1370" width="740" height="140" rx="16" fill="#FFDB96" stroke="#142333" stroke-width="3" stroke-dasharray="12 8"/><text x="1404" y="1411" font-family="Arial, Helvetica, sans-serif" font-size="32" font-weight="400" fill="#142333" text-anchor="start" id="text-072">Android integration • IN PROGRESS</text><text x="1404" y="1452" font-family="Arial, Helvetica, sans-serif" font-size="27" font-weight="400" fill="#142333" text-anchor="start" id="text-073">Live route inference + conversion parity: TARGET</text><text x="1347" y="1188" font-family="Arial, Helvetica, sans-serif" font-size="24" font-weight="400" fill="#142333" text-anchor="middle" transform="rotate(-90 1347 1188)" id="text-074">Target live route input</text><rect x="2280" y="350" width="528" height="125" rx="16" fill="#B6D4F7" stroke="#142333" stroke-width="3"/><g transform="translate(2304 367) scale(0.85)" fill="none" stroke="#205ba6" color="#205ba6" stroke-width="3" stroke-linecap="round" stroke-linejoin="round"><path d="M3 18h10L25 7v34L13 30H3ZM32 15q11 9 0 18M39 8q18 16 0 32"/></g><text x="2369" y="392" font-family="Arial, Helvetica, sans-serif" font-size="31" font-weight="400" fill="#142333" text-anchor="start" id="text-075">Phone text-to-speech</text><text x="2304" y="444" font-family="Arial, Helvetica, sans-serif" font-size="27" font-weight="400" fill="#142333" text-anchor="start" id="text-076">Speaks live detection information</text><rect x="2280" y="585" width="528" height="125" rx="16" fill="#B6D4F7" stroke="#142333" stroke-width="3"/><g transform="translate(2304 602) scale(0.85)" fill="none" stroke="#205ba6" color="#205ba6" stroke-width="3" stroke-linecap="round" stroke-linejoin="round"><path d="M10 24c-6-26 32-31 32-6 0 10-14 11-15 20-1 10-14 11-16 0M19 21c-3-11 13-14 14-3 0 6-10 7-10 14"/></g><text x="2369" y="627" font-family="Arial, Helvetica, sans-serif" font-size="31" font-weight="400" fill="#142333" text-anchor="start" id="text-077">Connected headphones</text><text x="2304" y="676" font-family="Arial, Helvetica, sans-serif" font-size="28" font-weight="400" fill="#142333" text-anchor="start" id="text-078">Phone audio output</text><rect x="2280" y="820" width="528" height="110" rx="38" fill="#B6D4F7" stroke="#142333" stroke-width="3"/><g transform="translate(2304 835) scale(0.85)" fill="none" stroke="#205ba6" color="#205ba6" stroke-width="3" stroke-linecap="round" stroke-linejoin="round"><circle cx="24" cy="9" r="7"/><path d="M7 44v-7c0-18 34-18 34 0v7"/></g><text x="2369" y="862" font-family="Arial, Helvetica, sans-serif" font-size="31" font-weight="400" fill="#142333" text-anchor="start" id="text-079">User</text><text x="2304" y="905" font-family="Arial, Helvetica, sans-serif" font-size="28" font-weight="400" fill="#142333" text-anchor="start" id="text-080">Receives spoken detections</text><text x="2564" y="546" font-family="Arial, Helvetica, sans-serif" font-size="25" font-weight="400" fill="#142333" text-anchor="start" id="text-081">Audio</text><rect x="2280" y="1120" width="528" height="250" rx="16" fill="#FFDB96" stroke="#142333" stroke-width="3" stroke-dasharray="12 8"/><text x="2304" y="1164" font-family="Arial, Helvetica, sans-serif" font-size="30" font-weight="400" fill="#142333" text-anchor="start" id="text-082">Route-output policy • TARGET</text><text x="2304" y="1210" font-family="Arial, Helvetica, sans-serif" font-size="27" font-weight="400" fill="#142333" text-anchor="start" id="text-083">Progress + physical turn timing</text><text x="2304" y="1250" font-family="Arial, Helvetica, sans-serif" font-size="27" font-weight="400" fill="#142333" text-anchor="start" id="text-084">Separate proximity / fault alerts</text><text x="2304" y="1290" font-family="Arial, Helvetica, sans-serif" font-size="27" font-weight="400" fill="#142333" text-anchor="start" id="text-085">Cancel stale route cues</text><text x="2304" y="1330" font-family="Arial, Helvetica, sans-serif" font-size="27" font-weight="400" fill="#142333" text-anchor="start" id="text-086">Supervised user validation</text><text x="2788" y="1003" font-family="Arial, Helvetica, sans-serif" font-size="25" font-weight="400" fill="#142333" text-anchor="end" id="text-087">Future route speech</text><path d="M72 1530 H2808" fill="none" stroke="#142333" stroke-width="1.5"/><text x="72" y="1577" font-family="Arial, Helvetica, sans-serif" font-size="31" font-weight="700" fill="#142333" text-anchor="start" id="text-088">5  Wearable power • proposed integration</text><text x="2808" y="1577" font-family="Arial, Helvetica, sans-serif" font-size="25" font-weight="400" fill="#142333" text-anchor="end" id="text-089">Conceptual power path • runtime to measure</text><rect x="72" y="1615" width="420" height="80" rx="14" fill="#FFDB96" stroke="#142333" stroke-width="3" stroke-dasharray="12 8"/><text x="282.0" y="1666" font-family="Arial, Helvetica, sans-serif" font-size="29" font-weight="400" fill="#142333" text-anchor="middle" id="text-090">Protected cell</text><rect x="650" y="1615" width="500" height="80" rx="14" fill="#FFDB96" stroke="#142333" stroke-width="3" stroke-dasharray="12 8"/><text x="900.0" y="1666" font-family="Arial, Helvetica, sans-serif" font-size="29" font-weight="400" fill="#142333" text-anchor="middle" id="text-091">Charging / protection</text><rect x="1320" y="1615" width="430" height="80" rx="14" fill="#FFDB96" stroke="#142333" stroke-width="3" stroke-dasharray="12 8"/><text x="1535.0" y="1666" font-family="Arial, Helvetica, sans-serif" font-size="29" font-weight="400" fill="#142333" text-anchor="middle" id="text-092">Regulated supply</text><rect x="1920" y="1615" width="888" height="80" rx="14" fill="#FFDB96" stroke="#142333" stroke-width="3" stroke-dasharray="12 8"/><text x="2364.0" y="1666" font-family="Arial, Helvetica, sans-serif" font-size="29" font-weight="400" fill="#142333" text-anchor="middle" id="text-093">Pi + camera + VL53L0X; future IMU</text><path d="M492 1655 H650" fill="none" stroke="#142333" stroke-width="3.3" stroke-linecap="round" stroke-linejoin="round" marker-end="url(#arrow-new)" stroke-dasharray="12 9"/><path d="M1150 1655 H1320" fill="none" stroke="#142333" stroke-width="3.3" stroke-linecap="round" stroke-linejoin="round" marker-end="url(#arrow-new)" stroke-dasharray="12 9"/><path d="M1750 1655 H1920" fill="none" stroke="#142333" stroke-width="3.3" stroke-linecap="round" stroke-linejoin="round" marker-end="url(#arrow-new)" stroke-dasharray="12 9"/><path d="M72 1750 H200" fill="none" stroke="#142333" stroke-width="3.3" stroke-linecap="round" stroke-linejoin="round" marker-end="url(#arrow-new)"/><text x="218" y="1759" font-family="Arial, Helvetica, sans-serif" font-size="26" font-weight="400" fill="#142333" text-anchor="start" id="text-094">Solid: current functional path</text><path d="M800 1750 H928" fill="none" stroke="#142333" stroke-width="3.3" stroke-linecap="round" stroke-linejoin="round" marker-end="url(#arrow-new)" stroke-dasharray="12 9"/><text x="946" y="1759" font-family="Arial, Helvetica, sans-serif" font-size="26" font-weight="400" fill="#142333" text-anchor="start" id="text-095">Dashed: integration / planned path</text><text x="2808" y="1759" font-family="Arial, Helvetica, sans-serif" font-size="26" font-weight="400" fill="#142333" text-anchor="end" id="text-096">One junction / two branches • no validated live navigation</text></g><text x="1404" y="1489" fill="#142333" font-family="Arial, Helvetica, sans-serif" font-size="27" id="text-097">IMU turn / backtracking fusion: PLANNED</text></svg>
